<?xml version="1.0" encoding="UTF-8"?>
<svg version="1.0" viewBox="0 0 707.42 398.84" xmlns="http://www.w3.org/2000/svg" xmlns:xlink="http://www.w3.org/1999/xlink">
 <defs>
  <linearGradient id="n">
   <stop stop-color="#676767" offset="0"/>
   <stop stop-color="#fff" offset=".02"/>
   <stop stop-color="#dfdfe1" offset=".04"/>
   <stop stop-color="#efeff0" offset=".96"/>
   <stop stop-color="#fff" offset=".98"/>
   <stop stop-color="#676767" offset="1"/>
  </linearGradient>
  <linearGradient id="m">
   <stop stop-color="#fff" offset="0"/>
   <stop stop-opacity="0" offset="1"/>
  </linearGradient>
  <linearGradient id="o" x1="525.28" x2="656.6" y1="97.768" y2="423.04" gradientTransform="matrix(1.0092 0 0 1.0058 -9.9652 2.1515)" gradientUnits="userSpaceOnUse" xlink:href="#m"/>
  <radialGradient id="x" cx="368.78" cy="101.43" r="3.4688" gradientTransform="matrix(1 0 0 .95 0 5.0362)" gradientUnits="userSpaceOnUse" xlink:href="#m"/>
  <linearGradient id="p" x1="19.123" x2="724.58" y1="438.17" y2="438.17" gradientTransform="matrix(1.0028 0 0 .9632 -1.0442 36.361)" gradientUnits="userSpaceOnUse" xlink:href="#n"/>
  <linearGradient id="q" x1="130.31" x2="611.14" y1="267.47" y2="267.47" gradientTransform="matrix(1 0 0 .99361 0 .72801)" gradientUnits="userSpaceOnUse">
   <stop stop-color="#9c5da6" offset="0"/>
   <stop stop-color="#5b325b" offset="1"/>
  </linearGradient>
  <linearGradient id="r" x1="359.08" x2="359.08" y1="465.67" y2="472.52" gradientTransform="matrix(.99992 0 0 1.0177 1.2423 -21.78)" gradientUnits="userSpaceOnUse">
   <stop stop-color="#e5e6e8" offset="0"/>
   <stop stop-color="#4c5252" offset="1"/>
  </linearGradient>
  <linearGradient id="s" x1="18.142" x2="725.56" y1="459.8" y2="459.8" gradientTransform="matrix(1.0001 0 0 .88472 -.03056 51.617)" gradientUnits="userSpaceOnUse" xlink:href="#n"/>
  <linearGradient id="t" x1="700.01" x2="695.5" y1="484.17" y2="478.27" gradientTransform="matrix(1.0083 0 0 1 -3.098 -2.7751)" gradientUnits="userSpaceOnUse">
   <stop offset="0"/>
   <stop stop-color="#fbfcff" stop-opacity="0" offset="1"/>
  </linearGradient>
  <linearGradient id="u" x1="329.66" x2="329.66" y1="473.49" y2="485.27" gradientTransform="matrix(1.0127 0 0 1 -6.2255 -2.7751)" gradientUnits="userSpaceOnUse">
   <stop stop-color="#8f9091" offset="0"/>
   <stop stop-color="#323b3b" offset="1"/>
  </linearGradient>
  <linearGradient id="v" x1="334.45" x2="334.45" y1="470.3" y2="485.04" gradientTransform="matrix(1.0083 0 0 .95399 -3.098 19.287)" gradientUnits="userSpaceOnUse">
   <stop stop-color="#d3d5d7" offset="0"/>
   <stop stop-color="#86898a" offset=".5"/>
   <stop stop-color="#171b1b" offset="1"/>
  </linearGradient>
  <linearGradient id="w" x1="38.15" x2="43.948" y1="479.5" y2="473.95" gradientTransform="matrix(1.0578 0 0 1.0104 -4.9081 -7.6835)" gradientUnits="userSpaceOnUse">
   <stop stop-opacity=".30348" offset="0"/>
   <stop stop-color="#fbfcff" stop-opacity="0" offset="1"/>
  </linearGradient>
 </defs>
 <g transform="translate(-18.142 -83.649)">
  <path d="m50.343 458.94h642.03c10.97 0 19.8 4.6 19.8 10.31l2.11 5.71c-7.73 4.32-10.94 7.53-21.91 7.53h-642.03c-10.968 0-22.769-7.05-25.49-11.28l7.667-1.23c0-5.7 6.855-11.04 17.826-11.04z" fill="url(#u)"/>
  <path d="m35.312 447.96c-7.029 0-13.166 2.66-16.656 6.67v13.87c0 0.49-0.03 0.97-0.062 1.46 3.479 4.05 9.647 6.76 16.718 6.76h672.1c7.65 0 14.22-3.18 17.5-7.81-0.22-1.12-0.35-2.27-0.35-3.45v-10.23c-3.38-4.35-9.78-7.27-17.15-7.27h-672.1z" fill="url(#v)"/>
  <path d="m699.43 482.26l9.62-4.86c10.84-2.08 15.56-8.32 15.56-8.32l-30.78-0.18-15.21 13.19 20.81 0.17z" fill="url(#t)" fill-rule="evenodd" opacity=".28358"/>
  <rect x="101.03" y="84.649" width="542.43" height="384.84" rx="19.999" ry="21.165" fill="#d0d0d2" stroke="#b3b7b7" stroke-linecap="round" stroke-linejoin="bevel" stroke-width="2"/>
  <rect x="103.91" y="88.266" width="535.76" height="376.78" rx="17" ry="17" stroke="#000" stroke-linecap="round" stroke-linejoin="bevel" stroke-width="1.0088"/>
  <rect x="130.31" y="113.93" width="480.83" height="305.12" fill="url(#q)" opacity=".87065"/>
  <path d="m533.41 88.935l-198.8 364.08 303.8 1.02s0.98-330.92 0.57-345.69c-0.43-15.469-6.97-19.024-20.48-19.194-14.2-0.179-85.09-0.221-85.09-0.221z" fill="url(#o)" fill-rule="evenodd" opacity=".26368"/>
  <path transform="matrix(1.2563 0 0 1.2563 -94.56 -25.955)" d="m372.25 100.72a3.4688 3.2954 0 1 1 -6.94 0 3.4688 3.2954 0 1 1 6.94 0z" fill="url(#x)" opacity=".16418"/>
  <rect x="18.602" y="447.98" width="706.5" height="20.852" fill="url(#p)" stroke="url(#s)" stroke-linecap="round" stroke-linejoin="bevel" stroke-width=".9199"/>
  <path d="m18.57 469.25l15.782 0.35 16.658 4.21 13.576 6.66-22.162 0.7-11.741-4.56c-9.907-2.8-12.113-7.36-12.113-7.36z" fill="url(#w)" fill-rule="evenodd" opacity=".77612"/>
  <path d="m315.17 447.12v1.81c0 5.64 4.46 10.18 10 10.18h86.93c5.54 0 10-4.54 10-10.18v-1.81h-106.93z" fill="url(#r)" opacity=".87065" stroke="#707575" stroke-linecap="round" stroke-linejoin="bevel" stroke-opacity=".51256" stroke-width=".94421"/>
  <rect x="657.11" y="457.3" width="25.755" height="2.6981" opacity=".86567" stroke="#999c9c" stroke-linecap="round" stroke-linejoin="bevel"/>
  <rect x="103.41" y="446.67" width="536.71" height=".8349" fill="#595c5c"/>
  <text x="344.03226" y="436.30844" fill="#000000" font-family="Futura" font-size="74.736px" opacity=".56219" xml:space="preserve">
      <tspan x="344.03226" y="436.30844" fill="#ffffff" font-family="Lucida Grande" font-size="9.1142px">MoonBook</tspan>
    </text>
 </g>
</svg>
