<svg width="236.211" height="251.778" xmlns="http://www.w3.org/2000/svg">

 <g>
  <title>background</title>
  <rect fill="none" id="canvas_background" height="253.778" width="238.211" y="-1" x="-1"/>
 </g>
 <g>
  <title>Layer 1</title>
  <g id="svg_1">
   <path id="svg_2" d="m67.199997,38.895c24.750999,0 44.853004,19.896 45.192001,44.565998l0.008003,0l0,0.634003l0,45.199997l-45.200005,0l-0.516998,0l0,-0.005997c-24.724998,-0.278 -44.682999,-20.403 -44.682999,-45.194c0,-24.964001 20.237,-45.200001 45.199997,-45.200001l0,0zm-0.097992,18.363998c-14.447006,0 -26.159004,12.015003 -26.159004,26.835003c0,14.717995 11.549999,26.667 25.860001,26.832001l0,0.002998l0.299004,0l26.158997,0l0,-26.834l0,-0.375999l-0.005005,0c-0.195999,-14.648003 -11.830002,-26.460003 -26.153992,-26.460003z" fill="#8a8a8a" clip-rule="evenodd" fill-rule="evenodd"/>
   <path id="svg_3" d="m67.199997,227.766006c24.750999,0 44.853004,-19.895996 45.192001,-44.56601l0.008003,0l0,-0.634003l0,-45.199997l-45.200005,0l-0.516998,0l0,0.006012c-24.724998,0.277985 -44.682999,20.402985 -44.682999,45.193985c0,24.962006 20.237,45.200012 45.199997,45.200012l0,0zm-0.097992,-18.365005c-14.447006,0 -26.159004,-12.014999 -26.159004,-26.835007c0,-14.717987 11.549999,-26.666992 25.860001,-26.832001l0,-0.002991l0.299004,0l26.158997,0l0,26.834991l0,0.376007l-0.005005,0c-0.195999,14.647003 -11.830002,26.459 -26.153992,26.459z" fill="#8a8a8a" clip-rule="evenodd" fill-rule="evenodd"/>
   <path id="svg_4" d="m120.542,17.007999c8.999992,-0.203999 17.93,3.545 19.049004,20.216l0,38.209l28.106995,0c19.462006,-0.382004 25.341003,-20.076 24.511002,-35.739998l18.930008,0c0.929993,25.327995 -7.374008,37.651001 -18.424011,44.505997c11.05101,6.855003 19.354004,19.178001 18.424011,44.506004l-18.930008,0c0.919998,-17.348999 -2.169998,-30.688004 -23.860001,-35.727005l-28.759003,0.162003l0,18.261002c-7.855988,0.787003 -10.332001,0.971001 -19.048996,9.653l0,-104.046001l0.000999,0z" fill="#8a8a8a" clip-rule="evenodd" fill-rule="evenodd"/>
   <path id="svg_5" d="m139.863007,134.781998l0,-17.263c-9.809998,0 -17.839005,7.620003 -18.49601,17.263l-0.043999,1.276001l0,17.263c9.809998,0 17.839005,-7.619995 18.494995,-17.263l0.045013,-1.276001z" fill="#8a8a8a" clip-rule="evenodd" fill-rule="evenodd"/>
   <path id="svg_6" d="m192.042999,137.958008l18.578995,0l-0.030991,36.896988c-0.656006,9.643997 -8.686005,17.263 -18.496002,17.263l0,-17.263l-0.052002,-36.896988z" fill="#8a8a8a" clip-rule="evenodd" fill-rule="evenodd"/>
   <path id="svg_7" d="m121.522003,159.710007c8.802002,-0.186996 15.36499,-4.472992 18.576996,-9.317001l-0.031006,61.122009c-0.655991,9.643997 -8.685989,17.263 -18.495995,17.263l0,-17.263l-0.049995,-51.805008z" fill="#8a8a8a" clip-rule="evenodd" fill-rule="evenodd"/>
  </g>
 </g>
</svg>